# xmcd
#
# Track frame offsets:
#	150
#	13999
#	28817
#	41257
#	54473
#	73628
#	84986
#	100655
#	118281
#	130523
#	142253
#	157839
#	177778
#	189706
#	199308
#
# Disc length: 2803 seconds
#
# Revision: 1
# Processed by: cddbd v1.5.2PL0 Copyright (c) Steve Scherf et al.
# Submitted via: audiograbber 1.83.01
#
DISCID=ce0af10f
DTITLE=Chartbuster - 60270 and 60064
DYEAR=1900
DGENRE=
TTITLE0=Jones, George - Grand Tour
TTITLE1=Haggard, Merle - Ramblin' Fever
TTITLE2=Harris, Emmylou - If I Could Only Win Your Love
TTITLE3=Hall, Tom T - The Year Clayton Delaney Died
TTITLE4=Price, Ray - I Won't Mention It Again
TTITLE5=Smith, Connie - If That Ain't Love
TTITLE6=Campbell, Glen - Witchata Lineman
TTITLE7=Robbins, Marty - Don't Worry
TTITLE8=Mandrell, Barbara - Happy Birthday Dear Heartache
TTITLE9=Wagoner, Porter - Ya'll Come
TTITLE10=Clark, Roy - Yesterday When I Was young
TTITLE11=Gentry, Bobbie - Ode To Billie Joe
TTITLE12=Rich, Charlie - She Called Me Baby
TTITLE13=Miller, Roger - Dang Me
TTITLE14=Lynn, Loretta - You're Lookin' At Country
EXTD=
EXTT0=
EXTT1=
EXTT2=
EXTT3=
EXTT4=
EXTT5=
EXTT6=
EXTT7=
EXTT8=
EXTT9=
EXTT10=
EXTT11=
EXTT12=
EXTT13=
EXTT14=
PLAYORDER=
